<svg xmlns="http://www.w3.org/2000/svg" xmlns:xlink="http://www.w3.org/1999/xlink" viewBox="0 0 1000 1250" version="1.1" xml:space="preserve" x="0px" y="0px"><path d="M 387.2581 488.7668 C 387.2581 491.2314 389.2571 493.2291 391.7231 493.2291 C 394.1892 493.2291 396.1882 491.2314 396.1882 488.7668 C 396.1882 486.3021 394.1892 484.3044 391.7231 484.3044 C 389.2571 484.3044 387.2581 486.3021 387.2581 488.7668 ZM 360.468 443.0276 C 360.468 452.2696 367.9643 459.7615 377.2118 459.7615 C 386.4594 459.7615 393.9556 452.2696 393.9556 443.0276 C 393.9556 433.7856 386.4594 426.2937 377.2118 426.2937 C 367.9643 426.2937 360.468 433.7856 360.468 443.0276 ZM 235.4473 518.8876 C 235.4473 525.6651 240.9446 531.1592 247.7261 531.1592 C 254.5075 531.1592 260.0049 525.6651 260.0049 518.8876 C 260.0049 512.1102 254.5075 506.6161 247.7261 506.6161 C 240.9446 506.6161 235.4473 512.1102 235.4473 518.8876 ZM 742.2276 415.1379 C 742.2276 421.2992 747.2252 426.2937 753.3902 426.2937 C 759.5552 426.2937 764.5528 421.2992 764.5528 415.1379 C 764.5528 408.9765 759.5552 403.982 753.3902 403.982 C 747.2252 403.982 742.2276 408.9765 742.2276 415.1379 ZM 655.1597 354.8961 C 655.1597 359.8251 659.1577 363.8207 664.0897 363.8207 C 669.0217 363.8207 673.0197 359.8251 673.0197 354.8961 C 673.0197 349.9669 669.0217 345.9713 664.0897 345.9713 C 659.1577 345.9713 655.1597 349.9669 655.1597 354.8961 ZM 481.0237 59.2649 C 481.0237 63.5778 484.5219 67.074 488.8374 67.074 C 493.153 67.074 496.6513 63.5778 496.6513 59.2649 C 496.6513 54.9519 493.153 51.4558 488.8374 51.4558 C 484.5219 51.4558 481.0237 54.9519 481.0237 59.2649 ZM 431.6852 115.0443 C 431.6852 124.4095 439.2814 132.0013 448.6522 132.0013 C 458.023 132.0013 465.6193 124.4095 465.6193 115.0443 C 465.6193 105.6792 458.023 98.0874 448.6522 98.0874 C 439.2814 98.0874 431.6852 105.6792 431.6852 115.0443 ZM 703.1586 455.2991 C 717.67 512.1942 631.7183 515.5409 705.3912 603.6724 C 690.8799 551.2398 770.134 537.8527 703.1586 455.2991 ZM 524.5576 86.039 C 557.6248 152.6157 443.3013 169.9556 546.5233 259.6093 C 510.0463 194.2512 625.7131 176.2141 524.5576 86.039 ZM 267.4466 818.2375 C 311.3527 932.7713 405.1182 946.1583 405.1182 946.1583 C 405.1182 946.1583 244.4501 759.4998 470.4043 594.6861 C 519.0861 559.177 533.9421 546.2769 533.9421 506.1859 C 580.2757 622.3923 487.6944 637.14 491.8816 713.8134 C 498.2393 830.2319 641.1357 780.3896 531.7618 948.5443 C 531.7618 948.5443 640.7907 941.4725 703.7907 859.8588 C 781.6082 759.0497 720.6466 663.5424 678.0671 625.0604 C 707.2515 697.7538 660.2982 735.5882 643.2529 725.6129 C 550.5861 652.2452 685.1693 609.3849 611.3065 419.8547 C 557.9223 282.8723 449.3765 238.8747 449.3765 238.8747 C 449.3765 238.8747 546.3416 424.7924 454.6543 500.4725 C 397.5104 547.6399 199.3601 640.6269 267.4466 818.2375 Z" stroke="#000000" stroke-width="2" fill="#000000"/></svg>